<mxfile host="app.diagrams.net" modified="2023-12-22T07:08:04.228Z" agent="Mozilla/5.0 (Macintosh; Intel Mac OS X 10_15_7) AppleWebKit/537.36 (KHTML, like Gecko) Chrome/120.0.0.0 Safari/537.36" version="21.6.8" etag="f4mHNsqxi7-h3B00z0E6" type="github">
  <diagram name="第 1 页" id="XhBtxtQenuhnz4CkXm2k">
    <mxGraphModel>
      <root>
        <mxCell id="0" />
        <mxCell id="1" parent="0" />
      </root>
    </mxGraphModel>
  </diagram>
</mxfile>
